<?xml version="1.0" ?><svg xmlns="http://www.w3.org/2000/svg" xmlns:xlink="http://www.w3.org/1999/xlink" version="1.1" viewBox="0 0 512 512" style="enable-background:new 0 0 512 512;" xml:space="preserve"><g id="_x30_1_Idea"><g><linearGradient id="SVGID_1_" gradientUnits="userSpaceOnUse" x1="284.9663" y1="-205.8513" x2="226.5783" y2="880.1656"><stop offset="0" style="stop-color:#EAE9FE"/><stop offset="0.4236" style="stop-color:#EEEEFE"/><stop offset="0.8967" style="stop-color:#FBFBFF"/><stop offset="1" style="stop-color:#FFFFFF"/></linearGradient><path style="fill:url(#SVGID_1_);" d="M468.836,264.275c-9.502-7.393-20.977-13.763-25.396-24.961    c-6.009-15.229,3.597-31.571,9.261-46.931c17.296-46.9-4.903-102.439-44.732-132.645    c-75.982-57.623-224.302-37.425-245.028,42.219c-8.768,33.692,6.94,72.131-9.131,103.013    c-20.278,38.966-74.073,41.594-108.719,58.921C2.169,285.358-6.419,332.1,24.365,367.686    c11.304,13.068,25.769,22.07,36.136,36.348c15.001,20.659,23.415,43.504,43.486,60.545c28.263,23.996,75.517,29.946,100.538,2.586    c14.09-15.407,18.675-38.106,34.054-52.225c20.245-18.586,52.242-16.086,78.004-6.514c25.762,9.571,49.655,25.026,76.789,29.381    c42.426,6.81,87.917-18.085,105.053-57.489C515.561,340.912,502.748,290.664,468.836,264.275z"/><g><path style="fill:#EDEDED;" d="M315.673,345.848c4.582-26.412,16.681-50.799,33.838-71.52     c18.946-22.931,29.62-52.856,27.526-85.387c-3.932-60.107-52.907-108.979-113.066-112.861     c-70.575-4.543-129.254,51.375-129.254,121.033c0,29.875,10.776,57.197,28.701,78.338c17.085,20.223,29.008,44.301,33.047,70.398     H315.673z"/><path style="fill:#386E93;" d="M291.956,405.825c-2.637,17.496-17.664,30.975-35.957,30.975     c-18.292,0-33.32-13.479-35.956-30.975H291.956z"/><path style="fill:#386E93;" d="M327.789,360.398L327.789,360.398c0,8.363-6.779,15.142-15.142,15.142h-113.29     c-8.363,0-15.142-6.779-15.142-15.142v0c0-8.363,6.779-15.142,15.142-15.142h113.29     C321.009,345.256,327.789,352.035,327.789,360.398z"/><path style="fill:#386E93;" d="M320.129,390.682L320.129,390.682c0,8.363-6.779,15.142-15.142,15.142h-97.969     c-8.363,0-15.142-6.779-15.142-15.142v0c0-8.363,6.779-15.142,15.142-15.142h97.969     C313.349,375.54,320.129,382.32,320.129,390.682z"/><circle style="fill:#F9BB40;" cx="256.002" cy="195.766" r="89.826"/><circle style="fill:#D8901D;" cx="256.002" cy="195.766" r="63.411"/><path style="fill:#332E8E;" d="M192.25,342.905c-15.978,6.517-15.593,29.318,0.679,35.235c-2.977,3.34-4.803,7.727-4.803,12.543     c0,10.416,8.474,18.892,18.892,18.892h9.945c4.208,18.128,20.132,30.975,39.037,30.975c18.906,0,34.83-12.847,39.038-30.975h9.95     c16.185,0,24.944-19.254,14.088-31.435c7.256-2.639,12.463-9.585,12.463-17.741c0-7.84-4.803-14.578-11.618-17.433     c4.656-23.706,15.833-46.766,32.476-66.867c20.366-24.65,30.443-55.908,28.376-88.021     c-4.076-62.308-54.188-112.332-116.566-116.359c-74.038-4.754-133.245,54.262-133.245,124.775     c0,29.576,10.509,58.259,29.586,80.758C177.158,296.914,188.067,319.555,192.25,342.905z M255.999,433.05     c-14.51,0-27.266-9.828-31.293-23.475h62.6C283.313,423.408,270.769,433.05,255.999,433.05z M304.987,402.074     c-30.266,0-67.74,0-97.97,0c-6.282,0-11.392-5.11-11.392-11.392s5.11-11.393,11.392-11.393h97.97     c6.282,0,11.392,5.111,11.392,11.393S311.269,402.074,304.987,402.074z M324.038,360.398c0,6.282-5.11,11.392-11.392,11.392     c-32.767,0-80.527,0-113.29,0c-6.282,0-11.392-5.11-11.392-11.392s5.11-11.393,11.392-11.393h113.29     C318.928,349.005,324.038,354.116,324.038,360.398z M263.725,79.204c58.632,3.784,105.734,50.801,109.564,109.359     c1.943,30.195-7.529,59.586-26.671,82.755c-17.428,21.049-29.167,45.247-34.069,70.162H199.634     c-4.427-24.611-15.919-48.428-33.361-69.073c-17.935-21.151-27.811-48.11-27.811-75.913     C138.462,128.505,195.679,74.811,263.725,79.204z"/><path style="fill:#332E8E;" d="M256.001,289.341c51.598,0,93.577-41.978,93.577-93.575s-41.979-93.575-93.577-93.575     s-93.575,41.978-93.575,93.575S204.403,289.341,256.001,289.341z M256.001,109.69c47.463,0,86.077,38.613,86.077,86.075     s-38.613,86.075-86.077,86.075c-47.462,0-86.075-38.613-86.075-86.075S208.539,109.69,256.001,109.69z"/><path style="fill:#332E8E;" d="M256.001,262.926c37.034,0,67.162-30.128,67.162-67.161s-30.128-67.161-67.162-67.161     c-37.032,0-67.161,30.128-67.161,67.161S218.969,262.926,256.001,262.926z M256.001,136.105     c32.898,0,59.662,26.764,59.662,59.661s-26.764,59.661-59.662,59.661c-32.897,0-59.661-26.764-59.661-59.661     S223.104,136.105,256.001,136.105z"/><path style="fill:#332E8E;" d="M256.054,223.494c-0.016,0-0.031-0.005-0.047-0.005c-0.001,0-0.001,0-0.002,0     c-6.465-0.026-11.718-5.243-11.718-11.659c0-2.072-1.678-3.75-3.75-3.75s-3.75,1.678-3.75,3.75     c0,9.274,6.659,17.028,15.47,18.786v2.536c0,2.072,1.678,3.75,3.75,3.75c2.072,0,3.75-1.678,3.75-3.75v-2.525     c8.799-1.732,15.459-9.499,15.459-18.797c0-10.612-8.581-19.245-19.133-19.262c-0.026,0-0.05-0.008-0.076-0.008     c-0.003,0-0.005,0.001-0.008,0.001c-6.462-0.029-11.712-5.246-11.712-11.66c0-6.469,5.25-11.729,11.712-11.759     c0.003,0,0.005,0.001,0.008,0.001c0.018,0,0.035-0.005,0.053-0.005c6.428,0.004,11.656,5.279,11.656,11.763     c0,2.072,1.678,3.75,3.75,3.75s3.75-1.678,3.75-3.75c0-9.348-6.66-17.155-15.459-18.895v-3.627c0-2.072-1.678-3.75-3.75-3.75     c-2.072,0-3.75,1.678-3.75,3.75v3.637c-8.811,1.768-15.47,9.561-15.47,18.885c0,10.428,8.42,18.922,18.85,19.144     c0.123,0.012,0.243,0.037,0.37,0.037c0.034,0,0.066-0.009,0.1-0.01c6.406,0.031,11.609,5.291,11.609,11.758     C267.716,218.261,262.485,223.493,256.054,223.494z"/></g></g></g><g id="Layer_1"/></svg>
